<svg xmlns="http://www.w3.org/2000/svg" viewBox="0 0 16 16" shape-rendering="crispEdges">
  <rect width="16" height="16" fill="#000000"/>
  <rect x="1" y="3" width="2" height="2" fill="#55ffff"/>
  <rect x="3" y="3" width="2" height="2" fill="#55ffff"/>
  <rect x="5" y="3" width="2" height="2" fill="#55ffff"/>
  <rect x="1" y="5" width="2" height="2" fill="#55ffff"/>
  <rect x="1" y="7" width="2" height="2" fill="#55ffff"/>
  <rect x="3" y="7" width="2" height="2" fill="#55ffff"/>
  <rect x="5" y="7" width="2" height="2" fill="#55ffff"/>
  <rect x="5" y="9" width="2" height="2" fill="#55ffff"/>
  <rect x="1" y="11" width="2" height="2" fill="#55ffff"/>
  <rect x="3" y="11" width="2" height="2" fill="#55ffff"/>
  <rect x="5" y="11" width="2" height="2" fill="#55ffff"/>
  <rect x="9" y="3" width="2" height="2" fill="#55ffff"/>
  <rect x="11" y="3" width="2" height="2" fill="#55ffff"/>
  <rect x="9" y="5" width="2" height="2" fill="#55ffff"/>
  <rect x="13" y="5" width="2" height="2" fill="#55ffff"/>
  <rect x="9" y="7" width="2" height="2" fill="#55ffff"/>
  <rect x="11" y="7" width="2" height="2" fill="#55ffff"/>
  <rect x="9" y="9" width="2" height="2" fill="#55ffff"/>
  <rect x="13" y="9" width="2" height="2" fill="#55ffff"/>
  <rect x="9" y="11" width="2" height="2" fill="#55ffff"/>
  <rect x="13" y="11" width="2" height="2" fill="#55ffff"/>
</svg>
